<?xml version="1.0" encoding="UTF-8" standalone="no"?>
<!-- Created with Inkscape (http://www.inkscape.org/) -->

<svg
  id="svg1"
  width="388"
  height="374.66666"
  viewBox="0 0 388 374.66666"
  xmlns:xlink="http://www.w3.org/1999/xlink"
  xmlns="http://www.w3.org/2000/svg">
  <defs
     id="defs1">
    <clipPath
       clipPathUnits="userSpaceOnUse"
       id="clipPath2">
      <path
         d="M 0,281 H 291 V 0 H 0 Z"
         transform="translate(-25.396501,-140.04)"
         id="path2" />
    </clipPath>
    <clipPath
       clipPathUnits="userSpaceOnUse"
       id="clipPath18">
      <path
         d="M 0,281 H 291 V 0 H 0 Z"
         transform="translate(-92.282702,-58.571301)"
         id="path18" />
    </clipPath>
    <clipPath
       clipPathUnits="userSpaceOnUse"
       id="clipPath20">
      <path
         d="M 0,281 H 291 V 0 H 0 Z"
         transform="translate(-112.9419,-197.06591)"
         id="path20" />
    </clipPath>
    <clipPath
       clipPathUnits="userSpaceOnUse"
       id="clipPath22">
      <path
         d="M 0,281 H 291 V 0 H 0 Z"
         transform="translate(-112.9419,-197.06591)"
         id="path22" />
    </clipPath>
    <clipPath
       clipPathUnits="userSpaceOnUse"
       id="clipPath24">
      <path
         d="M 0,281 H 291 V 0 H 0 Z"
         transform="translate(-257.52151,-173.4785)"
         id="path24" />
    </clipPath>
    <clipPath
       clipPathUnits="userSpaceOnUse"
       id="clipPath26">
      <path
         d="M 0,281 H 291 V 0 H 0 Z"
         transform="translate(-140.16891,-229.67971)"
         id="path26" />
    </clipPath>
    <clipPath
       clipPathUnits="userSpaceOnUse"
       id="clipPath28">
      <path
         d="M 0,281 H 291 V 0 H 0 Z"
         transform="translate(-146.6689,-232.01321)"
         id="path28" />
    </clipPath>
    <clipPath
       clipPathUnits="userSpaceOnUse"
       id="clipPath30">
      <path
         d="M 0,281 H 291 V 0 H 0 Z"
         transform="translate(-158.335,-213.01321)"
         id="path30" />
    </clipPath>
    <clipPath
       clipPathUnits="userSpaceOnUse"
       id="clipPath32">
      <path
         d="M 0,281 H 291 V 0 H 0 Z"
         transform="translate(-214.501,-182.8467)"
         id="path32" />
    </clipPath>
    <clipPath
       clipPathUnits="userSpaceOnUse"
       id="clipPath34">
      <path
         d="M 0,281 H 291 V 0 H 0 Z"
         transform="translate(-155.335,-123.0122)"
         id="path34" />
    </clipPath>
    <clipPath
       clipPathUnits="userSpaceOnUse"
       id="clipPath36">
      <path
         d="M 0,281 H 291 V 0 H 0 Z"
         transform="translate(-78.668904,-111.0122)"
         id="path36" />
    </clipPath>
    <clipPath
       clipPathUnits="userSpaceOnUse"
       id="clipPath38">
      <path
         d="M 0,281 H 291 V 0 H 0 Z"
         transform="translate(-100.501,-119.84621)"
         id="path38" />
    </clipPath>
    <clipPath
       clipPathUnits="userSpaceOnUse"
       id="clipPath40">
      <path
         d="M 0,281 H 291 V 0 H 0 Z"
         transform="translate(-104.335,-128.84621)"
         id="path40" />
    </clipPath>
    <clipPath
       clipPathUnits="userSpaceOnUse"
       id="clipPath42">
      <path
         d="M 0,281 H 291 V 0 H 0 Z"
         transform="translate(-148.00101,-202.8462)"
         id="path42" />
    </clipPath>
    <clipPath
       clipPathUnits="userSpaceOnUse"
       id="clipPath44">
      <path
         d="M 0,281 H 291 V 0 H 0 Z"
         transform="translate(-73.490702,-44.946299)"
         id="path44" />
    </clipPath>
  </defs>

  <g
     id="layer-MC0">
    <path
       id="path1"
       d="m 0,0 c 0,-65.17 52.831,-118 118,-118 65.17,0 118,52.83 118,118 0,65.169 -52.83,118 -118,118 C 52.831,118 0,65.169 0,0"
       style="fill:#1d70b8;fill-opacity:1;fill-rule:nonzero;stroke:#1d1d1b;stroke-width:1;stroke-linecap:butt;stroke-linejoin:miter;stroke-miterlimit:4;stroke-dasharray:none;stroke-opacity:1"
       transform="matrix(1.3333333,0,0,-1.3333333,33.862,187.94667)"
       clip-path="url(#clipPath2)" />
    <text
       id="text2"
       xml:space="preserve"
       transform="matrix(-0.17074035,-1.322356,1.322356,-0.17074035,57.649067,215.82747)"><tspan
         style="font-variant:normal;font-weight:700;font-stretch:normal;font-size:20px;font-family:Verdana,serif;writing-mode:lr-tb;fill:#1d1d1b;fill-opacity:1;fill-rule:nonzero;stroke:none"
         x="0"
         y="0"
         id="tspan2">A</tspan></text>
    <text
       id="text3"
       xml:space="preserve"
       transform="matrix(0.03377997,-1.3329054,1.3329054,0.03377997,55.000667,193.89587)"><tspan
         style="font-variant:normal;font-weight:700;font-stretch:normal;font-size:20px;font-family:Verdana,serif;writing-mode:lr-tb;fill:#1d1d1b;fill-opacity:1;fill-rule:nonzero;stroke:none"
         x="0"
         y="0"
         id="tspan3">S</tspan></text>
    <text
       id="text4"
       xml:space="preserve"
       transform="matrix(0.3620259,-1.2832439,1.2832439,0.3620259,57.256533,161.67573)"><tspan
         style="font-variant:normal;font-weight:700;font-stretch:normal;font-size:20px;font-family:Verdana,serif;writing-mode:lr-tb;fill:#1d1d1b;fill-opacity:1;fill-rule:nonzero;stroke:none"
         x="0"
         y="0"
         id="tspan4">H</tspan></text>
    <text
       id="text5"
       xml:space="preserve"
       transform="matrix(0.57785952,-1.2016057,1.2016057,0.57785952,63.639333,139.30467)"><tspan
         style="font-variant:normal;font-weight:700;font-stretch:normal;font-size:20px;font-family:Verdana,serif;writing-mode:lr-tb;fill:#1d1d1b;fill-opacity:1;fill-rule:nonzero;stroke:none"
         x="0"
         y="0"
         id="tspan5">O</tspan></text>
    <text
       id="text6"
       xml:space="preserve"
       transform="matrix(0.76105401,-1.0947943,1.0947943,0.76105401,74.2376,117.90293)"><tspan
         style="font-variant:normal;font-weight:700;font-stretch:normal;font-size:20px;font-family:Verdana,serif;writing-mode:lr-tb;fill:#1d1d1b;fill-opacity:1;fill-rule:nonzero;stroke:none"
         x="0"
         y="0"
         id="tspan6">E</tspan></text>
    <text
       id="text7"
       xml:space="preserve"
       transform="matrix(0.92401198,-0.96123859,0.96123859,0.92401198,85.312533,101.85093)"><tspan
         style="font-variant:normal;font-weight:700;font-stretch:normal;font-size:20px;font-family:Verdana,serif;writing-mode:lr-tb;fill:#1d1d1b;fill-opacity:1;fill-rule:nonzero;stroke:none"
         x="0"
         y="0"
         id="tspan7">N</tspan></text>
    <text
       id="text8"
       xml:space="preserve"
       transform="matrix(1.0740115,-0.79011201,0.79011201,1.0740115,101.70507,84.930933)"><tspan
         style="font-variant:normal;font-weight:700;font-stretch:normal;font-size:20px;font-family:Verdana,serif;writing-mode:lr-tb;fill:#1d1d1b;fill-opacity:1;fill-rule:nonzero;stroke:none"
         x="0"
         y="0"
         id="tspan8">H</tspan></text>
    <text
       id="text9"
       xml:space="preserve"
       transform="matrix(1.185101,-0.61099383,0.61099383,1.185101,120.8796,71.151733)"><tspan
         style="font-variant:normal;font-weight:700;font-stretch:normal;font-size:20px;font-family:Verdana,serif;writing-mode:lr-tb;fill:#1d1d1b;fill-opacity:1;fill-rule:nonzero;stroke:none"
         x="0"
         y="0"
         id="tspan9">E</tspan></text>
    <text
       id="text10"
       xml:space="preserve"
       transform="matrix(1.2564873,-0.44611358,0.44611358,1.2564873,138.8216,62.179067)"><tspan
         style="font-variant:normal;font-weight:700;font-stretch:normal;font-size:20px;font-family:Verdana,serif;writing-mode:lr-tb;fill:#1d1d1b;fill-opacity:1;fill-rule:nonzero;stroke:none"
         x="0"
         y="0"
         id="tspan10">I</tspan></text>
    <text
       id="text11"
       xml:space="preserve"
       transform="matrix(1.3107737,-0.24423341,0.24423341,1.3107737,153.6816,56.567067)"><tspan
         style="font-variant:normal;font-weight:700;font-stretch:normal;font-size:20px;font-family:Verdana,serif;writing-mode:lr-tb;fill:#1d1d1b;fill-opacity:1;fill-rule:nonzero;stroke:none"
         x="0"
         y="0"
         id="tspan11">M</tspan></text>
    <text
       id="text12"
       xml:space="preserve"
       transform="matrix(1.3298226,0.09669352,-0.09669352,1.3298226,191.77533,51.623067)"><tspan
         style="font-variant:normal;font-weight:700;font-stretch:normal;font-size:20px;font-family:Verdana,serif;writing-mode:lr-tb;fill:#1d1d1b;fill-opacity:1;fill-rule:nonzero;stroke:none"
         x="0"
         y="0"
         id="tspan12">S</tspan></text>
    <text
       id="text13"
       xml:space="preserve"
       transform="matrix(1.2998661,0.29685988,-0.29685988,1.2998661,212.09373,53.182267)"><tspan
         style="font-variant:normal;font-weight:700;font-stretch:normal;font-size:20px;font-family:Verdana,serif;writing-mode:lr-tb;fill:#1d1d1b;fill-opacity:1;fill-rule:nonzero;stroke:none"
         x="0"
         y="0"
         id="tspan13">P</tspan></text>
    <text
       id="text14"
       xml:space="preserve"
       transform="matrix(1.2337033,0.50572133,-0.50572133,1.2337033,232.25453,57.749333)"><tspan
         style="font-variant:normal;font-weight:700;font-stretch:normal;font-size:20px;font-family:Verdana,serif;writing-mode:lr-tb;fill:#1d1d1b;fill-opacity:1;fill-rule:nonzero;stroke:none"
         x="0"
         y="0"
         id="tspan14">O</tspan></text>
    <text
       id="text15"
       xml:space="preserve"
       transform="matrix(1.1318452,0.70477243,-0.70477243,1.1318452,254.11333,66.888)"><tspan
         style="font-variant:normal;font-weight:700;font-stretch:normal;font-size:20px;font-family:Verdana,serif;writing-mode:lr-tb;fill:#1d1d1b;fill-opacity:1;fill-rule:nonzero;stroke:none"
         x="0"
         y="0"
         id="tspan15">R</tspan></text>
    <text
       id="text16"
       xml:space="preserve"
       transform="matrix(1.0110549,0.86922135,-0.86922135,1.0110549,272.91147,78.8464)"><tspan
         style="font-variant:normal;font-weight:700;font-stretch:normal;font-size:20px;font-family:Verdana,serif;writing-mode:lr-tb;fill:#1d1d1b;fill-opacity:1;fill-rule:nonzero;stroke:none"
         x="0"
         y="0"
         id="tspan16">T</tspan></text>
    <text
       id="text17"
       xml:space="preserve"
       transform="matrix(0.87317904,1.0076389,-1.0076389,0.87317904,287.81773,91.774133)"><tspan
         style="font-variant:normal;font-weight:700;font-stretch:normal;font-size:20px;font-family:Verdana,serif;writing-mode:lr-tb;fill:#1d1d1b;fill-opacity:1;fill-rule:nonzero;stroke:none"
         x="0"
         y="0"
         id="tspan17">S</tspan></text>
    <path
       id="path17"
       d="m 0,0 -3,-0.75 c 0,0 -1.5,5.25 -5,5.5 0,0 -7.75,-0.25 -15,-7.25 0,0 -2.25,-1.5 -3.5,-0.5 0,0 -2.75,2 2.25,6 0,0 5.5,4.75 7,8.5 0,0 7,10.25 20,15.25 0,0 5.25,5.75 8,5.5 0,0 2.25,-1 1,-3.25 0,0 -0.75,-2 0.75,-4 0,0 2.5,-4.25 -7,-11.5 C 5.5,13.5 -4.5,5 0,0"
       style="fill:#ffffff;fill-opacity:1;fill-rule:nonzero;stroke:#1d1d1b;stroke-width:1;stroke-linecap:butt;stroke-linejoin:miter;stroke-miterlimit:4;stroke-dasharray:none;stroke-opacity:1"
       transform="matrix(1.3333333,0,0,-1.3333333,123.0436,296.5716)"
       clip-path="url(#clipPath18)" />
    <path
       id="path19"
       d="m 0,0 c 0,0 -7,-11.5 -4.75,-19.75 0,0 4.75,1.5 11.75,-2.5 0,0 -3,0 -6.5,-8 -3.5,-8 -5.25,-9 -8.5,-9.75 -3.25,-0.75 -17,-6.75 -25.75,-16.75 0,0 9.75,12.75 9.5,15.25 0,0 -5,-4.25 -12.75,-0.25 -7.75,4 -7,3.5 -9.25,3.75 0,0 26.5,0 34.25,9.75 0,0 4.25,4.5 4.5,13.25 0,0 -0.25,9 7.5,15"
       style="fill:#ffffff;fill-opacity:1;fill-rule:nonzero;stroke:none"
       transform="matrix(1.3333333,0,0,-1.3333333,150.5892,111.91213)"
       clip-path="url(#clipPath20)" />
    <path
       id="path21"
       d="m 0,0 c 0,0 -7,-11.5 -4.75,-19.75 0,0 4.75,1.5 11.75,-2.5 0,0 -3,0 -6.5,-8 -3.5,-8 -5.25,-9 -8.5,-9.75 -3.25,-0.75 -17,-6.75 -25.75,-16.75 0,0 9.75,12.75 9.5,15.25 0,0 -5,-4.25 -12.75,-0.25 -7.75,4 -7,3.5 -9.25,3.75 0,0 26.5,0 34.25,9.75 0,0 4.25,4.5 4.5,13.25 0,0 -0.25,9 7.5,15 z"
       style="fill:none;stroke:#1d1d1b;stroke-width:1;stroke-linecap:butt;stroke-linejoin:miter;stroke-miterlimit:4;stroke-dasharray:none;stroke-opacity:1"
       transform="matrix(1.3333333,0,0,-1.3333333,150.5892,111.91213)"
       clip-path="url(#clipPath22)" />
    <path
       id="path23"
       d="m -0.95822676,0 c 0,0 -12.79177324,-12.75 -19.79177324,-36 0,0 -29.749,10.25 -39.999,8.25 0,0 -9.75,-0.75 -11.25,-10.25 0,0 5.75,3.75 14,1.75 8.25,-2 34.749,-8.5 34.749,-8.5 0,0 7.925,-2.264 11.062,-5.715 0.159,-0.176 0.305,-0.354 0.438,-0.535 2.75,-3.75 -9.21867,14.809889 13.0313299,42.0598892 z"
       style="fill:#ffffff;fill-opacity:1;fill-rule:nonzero;stroke:#1d1d1b;stroke-width:1;stroke-linecap:butt;stroke-linejoin:miter;stroke-miterlimit:4;stroke-dasharray:none;stroke-opacity:1"
       transform="matrix(1.3333333,0,0,-1.3333333,343.362,143.362)"
       clip-path="url(#clipPath24)" />
    <path
       id="path25"
       d="m 0,0 c 0,0 2.332,-2.166 -0.5,-3.833 0,0 -1.334,-3.334 -0.168,-4.667 0,0 1,-2.167 3.5,-2.167 0,0 5.166,-1.833 5.5,-6.166 l 1,-4.5 c 0,0 0,-2.5 -1.5,-2.834 C 6.332,-24.5 4.166,-22.833 4,-20.667 3.832,-18.5 2.666,-15 0,-14.5 -2.668,-14 -5.834,-11.333 -6.168,-7.167 -6.5,-3 -3.5,0 -3.5,0 c 0,0 2,2 3.5,0"
       style="fill:#1d1d1b;fill-opacity:1;fill-rule:nonzero;stroke:none"
       transform="matrix(1.3333333,0,0,-1.3333333,186.89187,68.427067)"
       clip-path="url(#clipPath26)" />
    <path
       id="path27"
       d="M 0,0 C 0,0 -0.168,1.667 2.5,2.333 5.166,3 7.332,1.833 8.166,0.5 9,-0.833 10,-5.167 8.166,-8.667 c 0,0 -1.166,-3.333 0.5,-6.666 0,0 1.334,-2.834 -2,-2.667 0,0 -3.834,1.167 -4.5,7.167 0,0 0.5,4.666 1.834,6.666 0,0 0.5,2.667 -2,2.667 0,0 -2.334,0 -2,1.5"
       style="fill:#1d1d1b;fill-opacity:1;fill-rule:nonzero;stroke:none"
       transform="matrix(1.3333333,0,0,-1.3333333,195.55853,65.315733)"
       clip-path="url(#clipPath28)" />
    <path
       id="path29"
       d="m 0,0 c 0,0 4.332,6.167 12.666,4.167 0,0 11.666,-4.167 10.166,-12.167 0,0 -0.832,-6 -5.5,-9.333 0,0 30.002,3.666 39.168,-0.334 0,0 3.332,-1.5 1.666,-3.333 0,0 -2.166,-2.167 -6.5,-0.333 0,0 -12.834,2.5 -35.5,-2.334 0,0 -7,-2.333 -6.666,4.667 0,0 0.332,3.167 5.166,7.5 0,0 6.666,4.833 -0.334,9.833 0,0 -3.998,2.5 -10.332,-2 0,0 -3.834,-4.166 -1,-7.666 0,0 2.332,-4 -1.168,-4.5 0,0 -5.666,-1.834 -5.832,9.5 0,0 0,4.166 -0.334,5 0,0 0,2.166 3,1.333 0,0 0.668,-0.5 1.334,0"
       style="fill:#1d1d1b;fill-opacity:1;fill-rule:nonzero;stroke:none"
       transform="matrix(1.3333333,0,0,-1.3333333,211.11333,90.649067)"
       clip-path="url(#clipPath30)" />
    <path
       id="path31"
       d="m 0,0 c 0,0 -22.166,0.5 -29,-5.833 0,0 -5.666,-10 -3.832,-26.5 0,0 5.332,-39.5 -2.668,-45.834 0,0 -6,-5.5 -10.166,-2.5 0,0 -6.5,6 -7.834,11.334 0,0 -5.166,17.5 -7.5,20.333 0,0 -26.334,-9.667 -42.5,-22.333 0,0 -2.5,-3 -5.834,-2.167 l -3.5,0.667 c 0,0 -4.166,0.833 2,5.166 0,0 23.834,15.834 52.668,24.667 0,0 8.5,-21.167 13.166,-24.667 0,0 3,-3.667 3.5,-1.167 0.5,2.5 2.168,37.834 2.334,39.667 0,0 0.332,28.833 10.666,32.833 0,0 15.5,6.501 24.834,3.167 0,0 3.166,-1.333 5,-3.833 0,0 1.5,-2.833 -1.334,-3"
       style="fill:#1d1d1b;fill-opacity:1;fill-rule:nonzero;stroke:none"
       transform="matrix(1.3333333,0,0,-1.3333333,286.00133,130.87107)"
       clip-path="url(#clipPath32)" />
    <path
       id="path33"
       d="m 0,0 c 0,0 1.834,-7.999 -0.666,-8.166 0,0 -2.5,-0.5 -4.334,3.666 0,0 -3.668,6.501 0.666,7.834 0,0 3.668,1 4.334,-3.334"
       style="fill:#1d1d1b;fill-opacity:1;fill-rule:nonzero;stroke:none"
       transform="matrix(1.3333333,0,0,-1.3333333,207.11333,210.6504)"
       clip-path="url(#clipPath34)" />
    <path
       id="path35"
       d="m 0,0 c 0,0 5,-1 4.666,-4.666 0,0 -1,-4 0,-6.334 0,0 2.834,-4.833 -4.5,-4.5 0,0 -8.168,0.334 -5.334,11.168 0,0 1.668,4.666 5.168,4.332"
       style="fill:#1d1d1b;fill-opacity:1;fill-rule:nonzero;stroke:none"
       transform="matrix(1.3333333,0,0,-1.3333333,104.89187,226.6504)"
       clip-path="url(#clipPath36)" />
    <path
       id="path37"
       d="m 0,0 c 0,0 -8.832,-6.834 -10.166,-8.167 0,0 -2.334,-2.833 -4.168,-0.833 0,0 -2.332,2.5 2,5.333 0,0 6.334,4.167 7.834,6.167 0,0 2.834,2.167 4.5,0 0,0 1.334,-2.333 0,-2.5"
       style="fill:#1d1d1b;fill-opacity:1;fill-rule:nonzero;stroke:none"
       transform="matrix(1.3333333,0,0,-1.3333333,134.00133,214.87173)"
       clip-path="url(#clipPath38)" />
    <path
       id="path39"
       d="m 0,0 c 0,0 1.832,2 2.832,-0.667 0,0 0.334,-3 -3.5,-4.167 0,0 -4,-1.166 -3.166,1.5 0,0 1.668,2.501 3.834,3.334"
       style="fill:#1d1d1b;fill-opacity:1;fill-rule:nonzero;stroke:none"
       transform="matrix(1.3333333,0,0,-1.3333333,139.11333,202.87173)"
       clip-path="url(#clipPath40)" />
    <path
       id="path41"
       d="m 0,0 c 0,0 3.834,1.167 4,-4.667 0.168,-5.833 1.5,-24.166 -1.666,-35.499 0,0 -0.168,-3.5 -5.834,-7.5 -5.666,-4 -19.334,-15.668 -22.5,-19.334 0,0 -3.166,-2.5 -5,-0.834 0,0 -1.166,2 1.668,3.834 0,0 20.166,16.834 21,19 0,0 1.832,2.833 3.5,3.666 0,0 2.166,1.167 2.666,5.001 0,0 2.666,23.666 1.334,32.5 C -0.832,-3.833 -2.5,-1 0,0"
       style="fill:#1d1d1b;fill-opacity:1;fill-rule:nonzero;stroke:none"
       transform="matrix(1.3333333,0,0,-1.3333333,197.33467,104.20507)"
       clip-path="url(#clipPath42)" />
    <path
       id="path43"
       d="m 0,0 c 19.561,-14.398 43.725,-22.906 69.877,-22.906 31.07,0 59.335,12.008 80.408,31.637 4.611,4.294 -45.711,27.236 -45.711,27.236 C 104.574,35.967 -11.148,8.206 0,0"
       style="fill:#3baa35;fill-opacity:1;fill-rule:nonzero;stroke:#1d1d1b;stroke-width:1;stroke-linecap:butt;stroke-linejoin:miter;stroke-miterlimit:4;stroke-dasharray:none;stroke-opacity:1"
       transform="matrix(1.3333333,0,0,-1.3333333,97.9876,314.73827)"
       clip-path="url(#clipPath44)" />
  </g>
</svg>
